{
    "asset" : {
        "generator" : "Khronos glTF Blender I/O v1.7.33",
        "version" : "2.0"
    },
    "scene" : 0,
    "scenes" : [
        {
            "name" : "Scene",
            "nodes" : [
                0,
                1
            ]
        }
    ],
    "nodes" : [
        {
            "mesh" : 0,
            "name" : "sails_obj.001",
            "translation" : [
                -0.4588932394981384,
                0,
                0.5301846861839294
            ]
        },
        {
            "mesh" : 1,
            "name" : "boat_obj.003",
            "rotation" : [
                0,
                -0.06212790682911873,
                0,
                0.9980682134628296
            ],
            "translation" : [
                -0.01755887269973755,
                -0.3503250181674957,
                -0.13285432755947113
            ]
        }
    ],
    "materials" : [
        {
            "doubleSided" : true,
            "name" : "mat0_s.013",
            "pbrMetallicRoughness" : {
                "baseColorTexture" : {
                    "index" : 0
                },
                "metallicFactor" : 0
            }
        },
        {
            "doubleSided" : true,
            "name" : "mat0_s.014",
            "pbrMetallicRoughness" : {
                "baseColorTexture" : {
                    "index" : 1
                },
                "metallicFactor" : 0
            }
        },
        {
            "doubleSided" : true,
            "name" : "mat0_s.015",
            "pbrMetallicRoughness" : {
                "baseColorTexture" : {
                    "index" : 2
                },
                "metallicFactor" : 0
            }
        },
        {
            "doubleSided" : true,
            "name" : "mat0_s.016",
            "pbrMetallicRoughness" : {
                "baseColorTexture" : {
                    "index" : 3
                },
                "metallicFactor" : 0
            }
        },
        {
            "doubleSided" : true,
            "name" : "mat0_s.017",
            "pbrMetallicRoughness" : {
                "baseColorTexture" : {
                    "index" : 4
                },
                "metallicFactor" : 0
            }
        },
        {
            "doubleSided" : true,
            "name" : "mat0_s.018",
            "pbrMetallicRoughness" : {
                "baseColorTexture" : {
                    "index" : 5
                },
                "metallicFactor" : 0
            }
        }
    ],
    "meshes" : [
        {
            "name" : "sails_obj.001",
            "primitives" : [
                {
                    "attributes" : {
                        "POSITION" : 0,
                        "NORMAL" : 1,
                        "TEXCOORD_0" : 2
                    },
                    "indices" : 3,
                    "material" : 0
                },
                {
                    "attributes" : {
                        "POSITION" : 4,
                        "NORMAL" : 5,
                        "TEXCOORD_0" : 6
                    },
                    "indices" : 7,
                    "material" : 1
                }
            ]
        },
        {
            "name" : "boat_obj.004",
            "primitives" : [
                {
                    "attributes" : {
                        "POSITION" : 8,
                        "NORMAL" : 9,
                        "TEXCOORD_0" : 10
                    },
                    "indices" : 11,
                    "material" : 2
                },
                {
                    "attributes" : {
                        "POSITION" : 12,
                        "NORMAL" : 13,
                        "TEXCOORD_0" : 14
                    },
                    "indices" : 15,
                    "material" : 3
                },
                {
                    "attributes" : {
                        "POSITION" : 16,
                        "NORMAL" : 17,
                        "TEXCOORD_0" : 18
                    },
                    "indices" : 19,
                    "material" : 4
                },
                {
                    "attributes" : {
                        "POSITION" : 20,
                        "NORMAL" : 21,
                        "TEXCOORD_0" : 22
                    },
                    "indices" : 23,
                    "material" : 5
                }
            ]
        }
    ],
    "textures" : [
        {
            "sampler" : 0,
            "source" : 0
        },
        {
            "sampler" : 0,
            "source" : 1
        },
        {
            "sampler" : 0,
            "source" : 2
        },
        {
            "sampler" : 0,
            "source" : 3
        },
        {
            "sampler" : 0,
            "source" : 4
        },
        {
            "sampler" : 0,
            "source" : 5
        }
    ],
    "images" : [
        {
            "bufferView" : 4,
            "mimeType" : "image/png",
            "name" : "mat0_s.0066-color"
        },
        {
            "bufferView" : 9,
            "mimeType" : "image/png",
            "name" : "mat0_s.0068-color"
        },
        {
            "bufferView" : 14,
            "mimeType" : "image/png",
            "name" : "mat0_s.0035-color"
        },
        {
            "bufferView" : 19,
            "mimeType" : "image/png",
            "name" : "mat0_s.0037-color"
        },
        {
            "bufferView" : 24,
            "mimeType" : "image/png",
            "name" : "mat0_s.0039-color"
        },
        {
            "bufferView" : 29,
            "mimeType" : "image/png",
            "name" : "mat0_s.0043-color"
        }
    ],
    "accessors" : [
        {
            "bufferView" : 0,
            "componentType" : 5126,
            "count" : 8,
            "max" : [
                2.3904941082000732,
                6.096000671386719,
                0.275532066822052
            ],
            "min" : [
                -0.3396458029747009,
                0.42558979988098145,
                -1.986471176147461
            ],
            "type" : "VEC3"
        },
        {
            "bufferView" : 1,
            "componentType" : 5126,
            "count" : 8,
            "type" : "VEC3"
        },
        {
            "bufferView" : 2,
            "componentType" : 5126,
            "count" : 8,
            "type" : "VEC2"
        },
        {
            "bufferView" : 3,
            "componentType" : 5123,
            "count" : 12,
            "type" : "SCALAR"
        },
        {
            "bufferView" : 5,
            "componentType" : 5126,
            "count" : 15,
            "max" : [
                -0.7268017530441284,
                5.819820404052734,
                1.986471176147461
            ],
            "min" : [
                -2.3904941082000732,
                0,
                0.38504618406295776
            ],
            "type" : "VEC3"
        },
        {
            "bufferView" : 6,
            "componentType" : 5126,
            "count" : 15,
            "type" : "VEC3"
        },
        {
            "bufferView" : 7,
            "componentType" : 5126,
            "count" : 15,
            "type" : "VEC2"
        },
        {
            "bufferView" : 8,
            "componentType" : 5123,
            "count" : 24,
            "type" : "SCALAR"
        },
        {
            "bufferView" : 10,
            "componentType" : 5126,
            "count" : 20,
            "max" : [
                2.376899242401123,
                0.8783248066902161,
                2.5373318195343018
            ],
            "min" : [
                -2.417088747024536,
                -1.4645757675170898,
                -2.4194822311401367
            ],
            "type" : "VEC3"
        },
        {
            "bufferView" : 11,
            "componentType" : 5126,
            "count" : 20,
            "type" : "VEC3"
        },
        {
            "bufferView" : 12,
            "componentType" : 5126,
            "count" : 20,
            "type" : "VEC2"
        },
        {
            "bufferView" : 13,
            "componentType" : 5123,
            "count" : 36,
            "type" : "SCALAR"
        },
        {
            "bufferView" : 15,
            "componentType" : 5126,
            "count" : 14,
            "max" : [
                0.28806689381599426,
                -1.230474829673767,
                1.1262708902359009
            ],
            "min" : [
                -0.9272977113723755,
                -2.7460834980010986,
                -0.43006905913352966
            ],
            "type" : "VEC3"
        },
        {
            "bufferView" : 16,
            "componentType" : 5126,
            "count" : 14,
            "type" : "VEC3"
        },
        {
            "bufferView" : 17,
            "componentType" : 5126,
            "count" : 14,
            "type" : "VEC2"
        },
        {
            "bufferView" : 18,
            "componentType" : 5123,
            "count" : 24,
            "type" : "SCALAR"
        },
        {
            "bufferView" : 20,
            "componentType" : 5126,
            "count" : 19,
            "max" : [
                2.045057773590088,
                0.7726559042930603,
                -1.6422429084777832
            ],
            "min" : [
                1.490615963935852,
                -0.3243202567100525,
                -1.9278802871704102
            ],
            "type" : "VEC3"
        },
        {
            "bufferView" : 21,
            "componentType" : 5126,
            "count" : 19,
            "type" : "VEC3"
        },
        {
            "bufferView" : 22,
            "componentType" : 5126,
            "count" : 19,
            "type" : "VEC2"
        },
        {
            "bufferView" : 23,
            "componentType" : 5123,
            "count" : 30,
            "type" : "SCALAR"
        },
        {
            "bufferView" : 25,
            "componentType" : 5126,
            "count" : 152,
            "max" : [
                -0.4608372151851654,
                6.397916316986084,
                1.3137158155441284
            ],
            "min" : [
                -1.0038107633590698,
                -1.1532875299453735,
                0.683540940284729
            ],
            "type" : "VEC3"
        },
        {
            "bufferView" : 26,
            "componentType" : 5126,
            "count" : 152,
            "type" : "VEC3"
        },
        {
            "bufferView" : 27,
            "componentType" : 5126,
            "count" : 152,
            "type" : "VEC2"
        },
        {
            "bufferView" : 28,
            "componentType" : 5123,
            "count" : 720,
            "type" : "SCALAR"
        }
    ],
    "bufferViews" : [
        {
            "buffer" : 0,
            "byteLength" : 96,
            "byteOffset" : 0
        },
        {
            "buffer" : 0,
            "byteLength" : 96,
            "byteOffset" : 96
        },
        {
            "buffer" : 0,
            "byteLength" : 64,
            "byteOffset" : 192
        },
        {
            "buffer" : 0,
            "byteLength" : 24,
            "byteOffset" : 256
        },
        {
            "buffer" : 0,
            "byteLength" : 1270921,
            "byteOffset" : 280
        },
        {
            "buffer" : 0,
            "byteLength" : 180,
            "byteOffset" : 1271204
        },
        {
            "buffer" : 0,
            "byteLength" : 180,
            "byteOffset" : 1271384
        },
        {
            "buffer" : 0,
            "byteLength" : 120,
            "byteOffset" : 1271564
        },
        {
            "buffer" : 0,
            "byteLength" : 48,
            "byteOffset" : 1271684
        },
        {
            "buffer" : 0,
            "byteLength" : 1432213,
            "byteOffset" : 1271732
        },
        {
            "buffer" : 0,
            "byteLength" : 240,
            "byteOffset" : 2703948
        },
        {
            "buffer" : 0,
            "byteLength" : 240,
            "byteOffset" : 2704188
        },
        {
            "buffer" : 0,
            "byteLength" : 160,
            "byteOffset" : 2704428
        },
        {
            "buffer" : 0,
            "byteLength" : 72,
            "byteOffset" : 2704588
        },
        {
            "buffer" : 0,
            "byteLength" : 150096,
            "byteOffset" : 2704660
        },
        {
            "buffer" : 0,
            "byteLength" : 168,
            "byteOffset" : 2854756
        },
        {
            "buffer" : 0,
            "byteLength" : 168,
            "byteOffset" : 2854924
        },
        {
            "buffer" : 0,
            "byteLength" : 112,
            "byteOffset" : 2855092
        },
        {
            "buffer" : 0,
            "byteLength" : 48,
            "byteOffset" : 2855204
        },
        {
            "buffer" : 0,
            "byteLength" : 27147,
            "byteOffset" : 2855252
        },
        {
            "buffer" : 0,
            "byteLength" : 228,
            "byteOffset" : 2882400
        },
        {
            "buffer" : 0,
            "byteLength" : 228,
            "byteOffset" : 2882628
        },
        {
            "buffer" : 0,
            "byteLength" : 152,
            "byteOffset" : 2882856
        },
        {
            "buffer" : 0,
            "byteLength" : 60,
            "byteOffset" : 2883008
        },
        {
            "buffer" : 0,
            "byteLength" : 28967,
            "byteOffset" : 2883068
        },
        {
            "buffer" : 0,
            "byteLength" : 1824,
            "byteOffset" : 2912036
        },
        {
            "buffer" : 0,
            "byteLength" : 1824,
            "byteOffset" : 2913860
        },
        {
            "buffer" : 0,
            "byteLength" : 1216,
            "byteOffset" : 2915684
        },
        {
            "buffer" : 0,
            "byteLength" : 1440,
            "byteOffset" : 2916900
        },
        {
            "buffer" : 0,
            "byteLength" : 23581,
            "byteOffset" : 2918340
        }
    ],
    "samplers" : [
        {
            "magFilter" : 9729,
            "minFilter" : 9987
        }
    ],
    "buffers" : [
        {
            "byteLength" : 2941924,
            "uri" : "data:application/octet-stream;base64,"
        }
    ]
}
